<svg id="Layer_1" data-name="Layer 1" xmlns="http://www.w3.org/2000/svg" xmlns:xlink="http://www.w3.org/1999/xlink" viewBox="0 0 1076.1 202.6"><defs><style>.cls-1{fill:url(#Blue);}.cls-2{fill:url(#Blue-2);}.cls-3{fill:url(#Blue-3);}.cls-4{fill:url(#Blue-4);}.cls-5{fill:url(#Blue-5);}.cls-6{fill:url(#Blue-6);}.cls-7{fill:url(#Blue-7);}.cls-8{fill:url(#Blue-8);}</style><linearGradient id="Blue" x1="256.18" y1="388.06" x2="375.99" y2="388.06" gradientUnits="userSpaceOnUse"><stop offset="0" stop-color="#2bc4f3"/><stop offset="0.5" stop-color="#00aeee"/><stop offset="1" stop-color="#0095da"/></linearGradient><linearGradient id="Blue-2" x1="379.39" y1="388.18" x2="428.4" y2="388.18" xlink:href="#Blue"/><linearGradient id="Blue-3" x1="431.81" y1="405.99" x2="540.72" y2="405.99" xlink:href="#Blue"/><linearGradient id="Blue-4" x1="544.12" y1="404.63" x2="653.04" y2="404.63" xlink:href="#Blue"/><linearGradient id="Blue-5" x1="88.15" y1="473.52" x2="228.74" y2="473.52" xlink:href="#Blue"/><linearGradient id="Blue-6" x1="89.56" y1="381.73" x2="226.49" y2="381.73" xlink:href="#Blue"/><linearGradient id="Blue-7" x1="152.65" y1="421.15" x2="171.17" y2="421.15" xlink:href="#Blue"/><linearGradient id="Blue-8" x1="126.23" y1="366.56" x2="164.53" y2="366.56" xlink:href="#Blue"/></defs><path class="cls-1" d="M278,324.08l8.17,5.44h2.72v-5.44h13.61q0,10.89,8.17,10.89l2.72-10.89h10.89q0,10.89,8.17,10.89l2.73-10.89H346Q346,335,354.21,335l2.72-8.17h2.72Q376,335,376,351.31q0,17.46-16.34,32.67,10.89,0,16.34,24.5,0,13.74-19.06,35.4l-2.72-2.72h-2.73q-16.34,10.89-24.5,10.89h-70.8v-2.72l5.45-43.57h-2.72l10.89-81.68ZM269.8,386.7v10.89h2.72V386.7Zm0,19.06v10.89l10.89-8.17v-2.72Zm10.89-19.06v10.89h2.72V386.7ZM332.42,384v13.61H316.09V386.7h-2.73v10.89H305.2V386.7h-2.73q0,19.07-10.89,19.06v5.45l2.72-2.73h5.45L297,422.1h30l10.89-10.89v-5.45l-5.45-5.44,2.73-2.73V384Zm-40.84,2.72v10.89h2.72V386.7Zm13.62-35.39-2.73,21.78H329.7l8.17-8.17v-5.45l-8.17-8.16Zm49,32.67v10.89h2.72V384Z" transform="translate(-88.15 -288.24)"/><path class="cls-2" d="M403.9,324.19h24.5q0,53.1-19.06,62.63L393,395l-2.73-2.72h-2.72V395q8.18,0,8.17,8.17l24.5-8.17v2.73l-5.44,54.45h-35.4v-2.72l5.45-73.52,2.72,2.73h2.72l-2.72-19.06v-8.17H393l-2.73-13.62q0-5.44,8.17-5.44l10.89,5.44v-5.44Z" transform="translate(-88.15 -288.24)"/><path class="cls-3" d="M437.25,357h16.34v13.61h2.72V357h19.06v8.17l-2.72,2.72v2.72h2.72l-5.44,46.29,2.72,8.17H489q10.89,0,13.61-68.07h16.34v5.44h2.72V357H538v5.44h2.72l-10.89,89.86H497.16V438.66Q480.81,455,459,455q-27.24-6.35-27.23-27.23h2.72l-2.72-2.72V411.43l2.72,2.73H440V406l-5.45-8.17v-5.44l13.61,5.44v-8.17q0-5.44-8.16-5.44l-2.73-2.73Z" transform="translate(-88.15 -288.24)"/><path class="cls-4" d="M598.58,354.26v5.44l8.17-5.44h2.72q38.12,0,43.57,40.84v16.33h-70.8l-5.44,5.45v10.89l2.72-2.72h2.72q10,8.16,19.06,8.17l13.62-8.17h2.72l2.72,2.72,2.73-2.72h24.5Q636,455,593.13,455q-49-3.18-49-43.57l8.17-27.22,2.72,2.72h8.17V370.59l8.17-8.17h5.45v10.9q8.16,0,8.17-16.34ZM555,416.88v10.89l5.45-5.44v-5.45Zm43.57-43.56-10.89,8.16v5.45H585v-5.45H576.8v5.45q8.16,0,8.17,8.17h32.67V384.21Q613.22,373.31,598.58,373.32Zm21.78,10.89v2.72h8.17v-5.45Z" transform="translate(-88.15 -288.24)"/><path d="M659.16,324.3h5.45v5.45h5.44L681,324.3h5.44V327l19.06-2.73h70.79L770.8,357h-5.45v-5.45h-2.72V357h-8.17V346.09h-2.72V357h-5.45l-2.72-2.72-10.89,5.44V348.81H730v5.45l2.72,16.33-8.17,81.69H683.67L694.56,357h-5.45v-2.72L686.39,357H670.05l-2.72-2.72L664.61,357h-8.17Zm49,27.23v13.62h2.73V351.53Z" transform="translate(-88.15 -288.24)"/><path d="M813.68,354.26H827.3q43.56,0,43.56,43.56,0,34.6-30,51.73L816.41,455h-2.73q-46.27,0-46.28-27.23l5.44-5.44v-5.45H767.4v8.17h-2.73L762,411.43l2.72-10.89h2.73l2.72,2.73h2.72v-5.45l-5.44-5.44,2.72-10.9h5.44l2.73,2.73H781v-5.45l-2.72-8.17,21.78,8.17v-8.17q0-5.44-8.17-5.44V359.7l8.17-2.72,8.17,2.72Zm-24.5,62.62v10.89l5.44-5.44v-5.45Zm10.89,0v2.72L811,430.49q20,0,24.51-29.95l-2.73-2.72V386.93l2.73-2.72v-2.73h-2.73v2.73l-16.33-5.45Q800.08,378.76,800.07,416.88Zm32.67,0v10.89l5.45-5.44v-5.45Zm21.78,0v10.89l5.45-5.44v-5.45Z" transform="translate(-88.15 -288.24)"/><path d="M879.71,357h16.34v13.61h2.72V357h19.06v8.17l-2.72,2.72v2.72h2.72l-5.44,46.29,2.72,8.17h16.34q10.89,0,13.61-68.07H961.4v5.44h2.72V357h16.34v5.44h2.72l-10.89,89.86H939.61V438.66Q923.28,455,901.5,455q-27.24-6.35-27.23-27.23H877l-2.72-2.72V411.43l2.72,2.73h5.45V406L877,397.82v-5.44l13.61,5.44v-8.17q0-5.44-8.16-5.44l-2.73-2.73Z" transform="translate(-88.15 -288.24)"/><path d="M1062.82,354.26V357l-2.72,35.4H1041q-16.33,0-16.34,59.9H989.31l-2.73-13.62v-5.44h2.73l8.16,2.72v-8.17q0-5.44-8.16-5.44v-10.9H992l8.17,2.73V406l-2.73-2.72v-2.73h5.45V384.21q0-5.44-8.17-5.45V367.87h2.72l8.17,2.72v-8.17l-2.72-2.72V357h27.23v2.72l-2.72,13.62Q1041,354.26,1062.82,354.26Zm-57.18,62.62v10.89h2.73V416.88Z" transform="translate(-88.15 -288.24)"/><path d="M1112.52,354.14v2.72l2.72-2.72h10.89l5.44,5.45,2.73-2.73h5.44q21.79,0,24.51,27.23h-32.68q0-10.89-8.17-10.89h-8.16l-8.17,5.45q0,9.87,43.56,19.06,13.62,8.73,13.62,21.78-4.89,21.78-10.89,21.78V427.66h-2.73v13.61l2.73,2.73q-17.82,10.89-40.84,10.89h-2.73q-43.56,0-43.56-32.68h35.39q2.27,16.46,10.9,21.79,0-10.11,13.61-13.62v-5.44q0-4.2-49-21.79l-5.45-16.33,2.72-13.62,29.95,10.89v-8.17l-8.16-19.06Zm-27.23,73.52v13.61h5.44V433.1Zm43.56,0v10.89l5.45,5.45V433.1Z" transform="translate(-88.15 -288.24)"/><path class="cls-5" d="M196.25,456.21c11.35,2.47,18.47,6,18.47,10,0,7.46-25.19,13.5-56.27,13.5s-56.28-6-56.28-13.5c0-4,7.13-7.53,18.47-10-19.53,3.34-32.49,9.19-32.49,15.84,0,10.38,31.47,18.79,70.3,18.79s70.29-8.41,70.29-18.79C228.74,465.4,215.79,459.55,196.25,456.21Z" transform="translate(-88.15 -288.24)"/><path class="cls-6" d="M158,288.24A68.46,68.46,0,0,0,89.56,356.7c0,40.43,68.46,118.51,68.46,118.51s68.47-75.07,68.47-118.51A68.46,68.46,0,0,0,158,288.24ZM131.78,408.57c-.47.09-.86-1.79-3.88-6.28-1.55-2.3-2.61-4-4.32-6.36a96.71,96.71,0,0,1-7.33-11.08,66.56,66.56,0,0,1-6-15.39,46.51,46.51,0,0,1-1.87-10.5,38.61,38.61,0,0,1,.28-6.76,34.32,34.32,0,0,1,1-4.89,32.84,32.84,0,0,1,2-5.17,37.26,37.26,0,0,1,3.6-6,39.62,39.62,0,0,1,7.77-7.63A36.14,36.14,0,0,1,127.9,325a33.85,33.85,0,0,1,6-2.73,49.32,49.32,0,0,1,8.77-2.08,35.59,35.59,0,0,1,10.43-.48,28.74,28.74,0,0,1,7.12,1.12,34.94,34.94,0,0,1,6.32,1.87,28,28,0,0,1,7,3.6,25,25,0,0,1,4.75,4.6,26.07,26.07,0,0,1,5.17,9.2,28.18,28.18,0,0,1,1,9.35,25.26,25.26,0,0,1-1,8.06,23.57,23.57,0,0,1-3.3,6.47,36.29,36.29,0,0,1-5.47,5.89c-2.5,2.31-3.48,2.93-8.05,6.62-5.2,4.19-4.26,3.66-7.66,6.3-4.87,3.8-4.26,2.86-7.53,5.64a79.65,79.65,0,0,0-7.25,6.11c-2.07,1.87-3.49,3.55-4.93,5.05-1.67,1.74-4.48,4.81-5.57,6.31C131.57,409,132.73,408.4,131.78,408.57Zm48,13.95c-2,3.4-3.69,6.14-4.82,7.92L158.53,454l-21.86-37.11,8.05-8.05c1.8-1.83,2.8-2.76,4.89-4.75,1.38-1.31,3.36-3.23,4.25-3.95a60.56,60.56,0,0,1,7.31-5.36,37,37,0,0,1,9.44-4c4.09-1,7.22-1.25,10.64.22a12.33,12.33,0,0,1,3.74,2.58,15.43,15.43,0,0,1,3.45,5.76C189.39,402.41,189,406.65,179.74,422.52Zm20.63-70.31c-.18,9.72-3.46,18-9.51,24a31.31,31.31,0,0,1-11.72,7.28,40.6,40.6,0,0,0,5.22-4.34c11-10.86,13.62-30.24,10.45-47.64l-.37.06-8.79,3.06-.11-.44a1.64,1.64,0,0,1,.45-1.59l5.88-5.52a2.82,2.82,0,0,0,.78-2.76l-.54-2.18c-1-4,.59-4.19.59-4.19s1.54-.29,2.52,3.68l.54,2.18a3.4,3.4,0,0,0,2,2.31l8,3.23a2,2,0,0,1,1.17,1.33l.11.44-9.56-.06C199.43,337,200.47,346.62,200.37,352.21Z" transform="translate(-88.15 -288.24)"/><path class="cls-7" d="M152.65,419.08l7.61,13.23,5.92-8.08,3.74-5.26s2.08-3.05.88-6.22c-1-2.59-6.18-4.89-12,.6C153.45,418.41,152.65,419.08,152.65,419.08Z" transform="translate(-88.15 -288.24)"/><path class="cls-8" d="M143.28,381.26c8.63-7.39,4.1-3.51,13.95-11.32a22.62,22.62,0,0,0,6.48-8.24,13.23,13.23,0,0,0-4-14.67,15.21,15.21,0,0,0-8.34-3.17A24.35,24.35,0,0,0,137.82,347a22.43,22.43,0,0,0-11.51,17.26,20,20,0,0,0,2.59,11.79c2.69,4.84,3,5.59,4.91,8.83a29.62,29.62,0,0,0,2.86,4.4h0a31.66,31.66,0,0,1,5.64-7.14Z" transform="translate(-88.15 -288.24)"/></svg>